<svg width="21" height="19" viewBox="0 0 21 19" fill="none" xmlns="http://www.w3.org/2000/svg">
<path fill-rule="evenodd" clip-rule="evenodd" d="M16 4.52L20.6 8.22C20.8463 8.4046 20.9938 8.6923 21 9V13C21 13.5523 20.5523 14 20 14H19.8C20.252 15.2453 19.8336 16.6396 18.7708 17.4304C17.7079 18.2212 16.2521 18.2212 15.1892 17.4304C14.1264 16.6396 13.708 15.2453 14.16 14H7.8C8.25289 15.2595 7.81666 16.6667 6.73074 17.4491C5.64482 18.2315 4.17193 18.2 3.12053 17.3717C2.06912 16.5435 1.69357 15.1189 2.2 13.88C1.45527 13.5552 0.981015 12.8122 0.999999 12V2C0.948749 0.955797 1.74653 0.0644265 2.79 0H14.19C15.2414 0.0538855 16.051 0.948426 16 2V4.52ZM19 12V9.48L16 7.08V12H19ZM6 15C6 15.5523 5.55228 16 5 16C4.44771 16 4 15.5523 4 15C4 14.4477 4.44771 14 5 14C5.55228 14 6 14.4477 6 15ZM17 16C17.5523 16 18 15.5523 18 15C18 14.4477 17.5523 14 17 14C16.4477 14 16 14.4477 16 15C16 15.5523 16.4477 16 17 16Z" fill="black"/>
</svg>
