<svg width="24" height="24" viewBox="0 0 24 24" fill="none" xmlns="http://www.w3.org/2000/svg">
<rect opacity="0.01" x="24" width="24" height="24" transform="rotate(90 24 0)" fill="black"/>
<path fill-rule="evenodd" clip-rule="evenodd" d="M18 3H6C4.76379 3.00732 3.65865 3.7722 3.21635 4.92661C2.77405 6.08101 3.08517 7.38852 4 8.22V18C4 19.6569 5.34315 21 7 21H17C18.6569 21 20 19.6569 20 18V8.22C20.9148 7.38852 21.226 6.08101 20.7837 4.92661C20.3414 3.7722 19.2362 3.00732 18 3ZM15 13.13C15 13.6105 14.6105 14 14.13 14H9.87C9.38951 14 9 13.6105 9 13.13V12.87C9 12.3895 9.38951 12 9.87 12H14.13C14.6105 12 15 12.3895 15 12.87V13.13ZM6 7H18C18.5523 7 19 6.55228 19 6C19 5.44772 18.5523 5 18 5H6C5.44772 5 5 5.44772 5 6C5 6.55228 5.44772 7 6 7Z" fill="black"/>
</svg>
