<svg width="20" height="20" viewBox="0 0 20 20" fill="none" xmlns="http://www.w3.org/2000/svg">
<path fill-rule="evenodd" clip-rule="evenodd" d="M0 10C0 4.47715 4.47715 0 10 0C12.6522 0 15.1957 1.05357 17.0711 2.92893C18.9464 4.8043 20 7.34784 20 10C20 15.5228 15.5228 20 10 20C4.47715 20 0 15.5228 0 10ZM13.0058 12C13.0058 11.7334 12.8993 11.4778 12.71 11.29L11.41 10L12.71 8.71C13.1021 8.31788 13.1021 7.68212 12.71 7.29C12.3179 6.89788 11.6821 6.89788 11.29 7.29L10 8.59L8.71 7.29C8.31788 6.89788 7.68212 6.89788 7.29 7.29C6.89788 7.68212 6.89788 8.31788 7.29 8.71L8.59 10L7.29 11.29C7.10069 11.4778 6.9942 11.7334 6.9942 12C6.9942 12.2666 7.10069 12.5222 7.29 12.71C7.47777 12.8993 7.73336 13.0058 8 13.0058C8.26664 13.0058 8.52223 12.8993 8.71 12.71L10 11.41L11.29 12.71C11.4778 12.8993 11.7334 13.0058 12 13.0058C12.2666 13.0058 12.5222 12.8993 12.71 12.71C12.8993 12.5222 13.0058 12.2666 13.0058 12Z" fill="black"/>
</svg>
